<svg xmlns="http://www.w3.org/2000/svg" width="1600" height="520" viewBox="0 0 1600 520" role="img" aria-labelledby="title desc">
  <title id="title">Embroidered astronaut in a cosmic bamboo grove</title>
  <desc id="desc">A wide decorative banner showing an astronaut in ornate stitched textile style, surrounded by blue bamboo, stars, and flowing gold-thread clouds.</desc>
  <defs>
    <linearGradient id="sky" x1="0" y1="0" x2="1" y2="1">
      <stop offset="0" stop-color="#09243d"/>
      <stop offset="0.46" stop-color="#0d3154"/>
      <stop offset="1" stop-color="#061525"/>
    </linearGradient>
    <radialGradient id="halo" cx="48%" cy="42%" r="55%">
      <stop offset="0" stop-color="#27f4ff" stop-opacity="0.28"/>
      <stop offset="0.42" stop-color="#126b8d" stop-opacity="0.12"/>
      <stop offset="1" stop-color="#000000" stop-opacity="0"/>
    </radialGradient>
    <radialGradient id="visor" cx="42%" cy="34%" r="67%">
      <stop offset="0" stop-color="#e6fbff"/>
      <stop offset="0.24" stop-color="#75efff"/>
      <stop offset="0.58" stop-color="#134569"/>
      <stop offset="1" stop-color="#06111d"/>
    </radialGradient>
    <linearGradient id="suit" x1="0" y1="0" x2="1" y2="1">
      <stop offset="0" stop-color="#fff8e8"/>
      <stop offset="0.45" stop-color="#d8eef2"/>
      <stop offset="1" stop-color="#7e9aac"/>
    </linearGradient>
    <linearGradient id="gold" x1="0" y1="0" x2="1" y2="0">
      <stop offset="0" stop-color="#7a4d06"/>
      <stop offset="0.35" stop-color="#ffe58a"/>
      <stop offset="0.7" stop-color="#d89a1a"/>
      <stop offset="1" stop-color="#fff1a6"/>
    </linearGradient>
    <pattern id="thread" width="18" height="18" patternUnits="userSpaceOnUse" patternTransform="rotate(28)">
      <path d="M0 9H18" stroke="#ffffff" stroke-opacity="0.08" stroke-width="2"/>
      <path d="M0 13H18" stroke="#00e5ff" stroke-opacity="0.035" stroke-width="1"/>
    </pattern>
    <pattern id="stitch" width="26" height="10" patternUnits="userSpaceOnUse">
      <path d="M0 5h12" stroke="#f7d76b" stroke-width="2" stroke-linecap="round" opacity="0.72"/>
      <path d="M16 5h8" stroke="#9df7ff" stroke-width="2" stroke-linecap="round" opacity="0.38"/>
    </pattern>
    <filter id="glow" x="-30%" y="-30%" width="160%" height="160%">
      <feGaussianBlur stdDeviation="4" result="blur"/>
      <feMerge>
        <feMergeNode in="blur"/>
        <feMergeNode in="SourceGraphic"/>
      </feMerge>
    </filter>
    <filter id="softShadow" x="-30%" y="-30%" width="160%" height="160%">
      <feDropShadow dx="0" dy="14" stdDeviation="16" flood-color="#000000" flood-opacity="0.42"/>
    </filter>
  </defs>

  <rect width="1600" height="520" fill="url(#sky)"/>
  <rect width="1600" height="520" fill="url(#thread)"/>
  <rect width="1600" height="520" fill="url(#halo)"/>

  <g opacity="0.42">
    <path d="M0 382C136 318 244 390 358 330S548 222 706 286s272 68 428-24 296-58 466-122v380H0z" fill="#06233d"/>
    <path d="M0 430c178-64 310-22 428-72 146-62 294-106 424-24 164 104 286 20 414-40 112-52 220-50 334 12v214H0z" fill="#07172b"/>
  </g>

  <g opacity="0.88">
    <g stroke-linecap="round">
      <path d="M118 536V-28" stroke="#134f68" stroke-width="16"/>
      <path d="M118 536V-28" stroke="#42d8e4" stroke-width="4" opacity="0.9"/>
      <path d="M170 536V-32" stroke="#0f7890" stroke-width="12"/>
      <path d="M170 536V-32" stroke="#7eefff" stroke-width="3" opacity="0.8"/>
      <path d="M1352 536V-26" stroke="#0d6379" stroke-width="17"/>
      <path d="M1352 536V-26" stroke="#5ae6ff" stroke-width="4" opacity="0.75"/>
      <path d="M1442 536V-22" stroke="#0e8ba4" stroke-width="13"/>
      <path d="M1442 536V-22" stroke="#7ff5ff" stroke-width="3" opacity="0.72"/>
    </g>
    <g fill="none" stroke="#d7f8ff" stroke-opacity="0.32" stroke-width="2">
      <path d="M94 94h77M93 194h78M93 296h78M1328 92h114M1328 210h114M1328 326h114"/>
    </g>
    <g fill="none" stroke="url(#gold)" stroke-width="3" stroke-linecap="round" opacity="0.78">
      <path d="M84 92c40 8 78 22 120 48"/>
      <path d="M85 238c46 16 88 38 124 70"/>
      <path d="M1314 128c54 12 102 34 148 72"/>
      <path d="M1318 284c52 18 98 44 136 82"/>
    </g>
  </g>

  <g fill="none" stroke-linecap="round" opacity="0.92">
    <path d="M44 404c132-112 226-102 302-42 64 50 110 46 174 8 82-48 152-36 232 34" fill="none" stroke="#0ccddd" stroke-width="11"/>
    <path d="M44 404c132-112 226-102 302-42 64 50 110 46 174 8 82-48 152-36 232 34" fill="none" stroke="url(#stitch)" stroke-width="5"/>
    <path d="M900 118c118-94 226-70 306-8 74 58 126 60 204 22 76-36 130-32 188 18" fill="none" stroke="#e9b543" stroke-width="9"/>
    <path d="M900 118c118-94 226-70 306-8 74 58 126 60 204 22 76-36 130-32 188 18" fill="none" stroke="url(#stitch)" stroke-width="4"/>
    <path d="M990 420c98-86 190-78 272-24 76 50 158 48 268-42" fill="none" stroke="#0b9aa9" stroke-width="9"/>
    <path d="M990 420c98-86 190-78 272-24 76 50 158 48 268-42" fill="none" stroke="url(#stitch)" stroke-width="4"/>
  </g>

  <g fill="none" stroke-linecap="round" stroke-linejoin="round" opacity="0.94">
    <path d="M54 456c48-54 118-50 132 0 10 36-28 54-54 32-22-18 4-48 34-26" fill="none" stroke="#c92b38" stroke-width="9"/>
    <path d="M22 488c72-84 178-86 230-18 26 34 10 66-30 68-36 2-62-24-48-52 16-30 58-22 72 8" fill="none" stroke="#0fc8d7" stroke-width="10"/>
    <path d="M84 508c92-46 176-36 238 30" fill="none" stroke="url(#gold)" stroke-width="7"/>

    <path d="M1290 444c48-54 126-42 138 8 8 36-34 54-60 28-20-20 10-48 38-22" fill="none" stroke="#0fc8d7" stroke-width="10"/>
    <path d="M1194 498c78-88 210-88 278-20 30 30 18 72-28 74-40 2-70-24-52-56 18-32 66-20 82 10" fill="none" stroke="#c92b38" stroke-width="9"/>
    <path d="M1248 512c102-46 198-34 282 28" fill="none" stroke="url(#gold)" stroke-width="7"/>

    <path d="M354 78c46-26 92-30 138-10M368 104c44-4 80 6 118 30M1098 78c52-28 106-30 158-4M1112 108c52-2 100 14 140 46" fill="none" stroke="#6defff" stroke-width="5" opacity="0.42"/>
    <path d="M394 70c24 18 44 40 60 66M1160 66c28 20 50 46 66 76" fill="none" stroke="url(#gold)" stroke-width="4" opacity="0.62"/>
  </g>

  <g filter="url(#glow)">
    <circle cx="250" cy="86" r="2.8" fill="#ffe98a"/>
    <circle cx="342" cy="186" r="3.8" fill="#69f5ff"/>
    <circle cx="505" cy="88" r="2.4" fill="#ffffff"/>
    <circle cx="697" cy="110" r="3" fill="#ffd66e"/>
    <circle cx="878" cy="424" r="3.2" fill="#9afaff"/>
    <circle cx="1122" cy="362" r="2.8" fill="#fff0a8"/>
    <circle cx="1240" cy="74" r="4.2" fill="#7bf6ff"/>
    <circle cx="1494" cy="258" r="3.2" fill="#ffe28a"/>
  </g>

  <g transform="translate(620 22) scale(0.88)">
    <path d="M176 330c-32 42-70 72-112 90" fill="none" stroke="#7defff" stroke-width="10" stroke-linecap="round"/>
    <path d="M338 310c36 36 76 58 128 72" fill="none" stroke="#7defff" stroke-width="10" stroke-linecap="round"/>
    <path d="M110 182c-54 18-92 50-116 96" fill="none" stroke="url(#gold)" stroke-width="18" stroke-linecap="round"/>
    <path d="M394 178c56 20 90 56 112 108" fill="none" stroke="url(#gold)" stroke-width="18" stroke-linecap="round"/>

    <ellipse cx="246" cy="410" rx="162" ry="24" fill="#02111f" opacity="0.55"/>
    <path d="M154 184c12-54 48-90 96-92 52-2 94 34 108 90l22 92c16 70-38 132-116 134-82 2-136-56-120-128z" fill="#eafcff" stroke="#ffffff" stroke-width="6"/>
    <path d="M174 205c18-48 50-74 86-74 42 0 70 28 84 76l18 70c14 54-30 96-94 98-66 2-106-38-94-96z" fill="#badbe6" opacity="0.44"/>
    <path d="M166 192c34 22 68 34 104 34 30 0 58-8 86-24" fill="none" stroke="#46e6f1" stroke-width="5" opacity="0.7"/>
    <path d="M158 278c68 22 142 24 220 4" fill="none" stroke="#0a6b7c" stroke-width="6" opacity="0.52"/>
    <path d="M174 330c58 20 120 22 186 4" fill="none" stroke="#0a6b7c" stroke-width="5" opacity="0.45"/>
    <rect x="190" y="246" width="132" height="62" rx="26" fill="#06111d" stroke="url(#gold)" stroke-width="5"/>
    <circle cx="218" cy="276" r="9" fill="#2ef4ff"/>
    <circle cx="250" cy="276" r="9" fill="#ffe082"/>
    <circle cx="282" cy="276" r="9" fill="#ff7b5f"/>

    <circle cx="252" cy="102" r="96" fill="#eefcff" stroke="#fff9dc" stroke-width="8"/>
    <circle cx="252" cy="104" r="70" fill="url(#visor)" stroke="#06111d" stroke-width="9"/>
    <path d="M192 86c44-42 106-48 154-16" fill="none" stroke="#ffffff" stroke-width="9" stroke-linecap="round" opacity="0.82"/>
    <path d="M205 132c42 28 92 32 138 4" fill="none" stroke="#56e8ff" stroke-width="5" stroke-linecap="round" opacity="0.76"/>
    <path d="M188 32c34-24 82-34 128-14" fill="none" stroke="url(#gold)" stroke-width="6" stroke-linecap="round"/>

    <path d="M154 184c-36 4-66 26-82 58-12 24-14 46-2 64 12 18 34 22 54 8 26-18 42-50 56-88z" fill="#d9f4fb" stroke="#ffffff" stroke-width="6"/>
    <path d="M374 184c34 8 62 34 76 68 10 24 8 48-6 64-14 16-36 16-54 0-24-22-36-54-46-92z" fill="#d9f4fb" stroke="#ffffff" stroke-width="6"/>
    <path d="M180 390l-36 82c-8 20 10 38 34 32l52-14 28-86z" fill="#d9f4fb" stroke="#ffffff" stroke-width="6"/>
    <path d="M330 392l42 82c10 20-8 40-32 34l-58-16-26-88z" fill="#d9f4fb" stroke="#ffffff" stroke-width="6"/>

    <g fill="none" stroke-linecap="round">
      <path d="M128 224c38 24 82 36 132 36 46 0 88-10 128-30" stroke="#fff6d9" stroke-width="3" opacity="0.86"/>
      <path d="M142 358c72 26 150 26 232 0" stroke="url(#gold)" stroke-width="4"/>
      <path d="M198 206c-4 66-2 132 8 200" stroke="#10394d" stroke-width="4" opacity="0.42"/>
      <path d="M310 206c8 70 8 136 0 200" stroke="#10394d" stroke-width="4" opacity="0.42"/>
    </g>
  </g>

  <g opacity="0.34" fill="none" stroke="#9cf7ff" stroke-width="1.4">
    <path d="M0 86h1600M0 174h1600M0 262h1600M0 350h1600M0 438h1600"/>
    <path d="M92 0v520M204 0v520M316 0v520M428 0v520M540 0v520M652 0v520M764 0v520M876 0v520M988 0v520M1100 0v520M1212 0v520M1324 0v520M1436 0v520M1548 0v520"/>
  </g>
</svg>
